<svg xmlns="http://www.w3.org/2000/svg" viewBox="0 0 32 32">
    <path d="M16,0h0A16,16,0,0,0,0,16v0A16,16,0,0,0,16,32h0A16,16,0,0,0,32,16v0A16,16,0,0,0,16,0Z"/>
    <path d="M16.2857,4,9.97035,7.6761,12.2922,9.03415,16.2857,6.7161l3.9935,2.31805L22.6011,7.6761Z" style="fill:#e7b941"/>
    <path d="M20.2792,10.9541l2.3219,1.3581v2.7161l-3.9936,2.318v4.6361l-2.3218,1.3581-2.3218-1.3581V17.3463l-3.99355-2.318V12.3122l2.32185-1.3581,3.9935,2.3181Z" style="fill:#e7b941"/>
    <path d="M22.6011,16.9483v2.7161l-2.3219,1.358V18.3063Z" style="fill:#e7b941"/>
    <path d="M20.2561,22.9424l3.9935-2.318V15.9883l2.3218-1.3581v7.3522l-6.3153,3.6761Z" style="fill:#e7b941"/>
    <path d="M24.2496,11.3522,21.9278,9.99414l2.3218-1.35805,2.3218,1.35805V12.7102l-2.3218,1.3581Z" style="fill:#e7b941"/>
    <path d="M13.9639,26.642V23.9259l2.3218,1.358,2.3218-1.358V26.642L16.2857,28Z" style="fill:#e7b941"/>
    <path d="M12.2922,21.0224l-2.32185-1.358V16.9483l2.32185,1.358Z" style="fill:#e7b941"/>
    <path d="M16.2857,11.3522,13.9639,9.99414l2.3218-1.35805,2.3218,1.35805Z" style="fill:#e7b941"/>
    <path d="M10.6437,9.99414,8.32183,11.3522v2.7161L6,12.7102V9.99414L8.32183,8.63609Z" style="fill:#e7b941"/>
    <path d="M6,14.6302l2.32183,1.3581v4.6361l3.99357,2.318v2.7161L6,21.9824Z" style="fill:#e7b941"/>
</svg>
